<?xml version="1.0" encoding="UTF-8"?>
<svg xmlns="http://www.w3.org/2000/svg" width="1032.0" height="800.0" viewBox="0 0 1032.000000 800.000000">
<g transform="translate(0.000000,800.000000) scale(0.100000,-0.100000)"
fill="#4b569e" stroke="none">
<path d="M1300 4740 c-16 -16 -20 -33 -20 -85 0 -83 -11 -88 -85 -40 -36 23
-63 34 -75 30 -30 -9 -106 -144 -97 -169 3 -8 34 -29 67 -46 73 -37 75 -54 9
-90 -61 -33 -79 -49 -79 -69 0 -22 78 -141 97 -148 8 -3 43 8 77 26 33 17 67
31 74 31 8 0 12 -20 12 -67 0 -38 4 -75 10 -83 12 -19 136 -31 170 -16 23 10
25 17 28 84 2 49 7 75 16 78 12 5 79 -26 101 -47 15 -15 51 -10 67 9 25 29 78
121 78 136 0 17 -26 39 -77 66 -60 31 -70 45 -41 64 13 8 37 20 53 27 38 16
65 39 65 54 0 7 -19 44 -41 84 -51 87 -67 92 -145 40 -63 -43 -74 -35 -74 50
0 88 -14 101 -107 101 -50 0 -67 -4 -83 -20z"/>
</g>
<g transform="translate(0.000000,800.000000) scale(0.100000,-0.100000)"
fill="#000000" stroke="none">
<path d="M5199 4362 c-17 -12 -19 -29 -19 -181 0 -116 4 -171 12 -179 9 -9 94
-12 319 -12 372 0 368 1 264 -93 -38 -34 -132 -121 -209 -193 -78 -72 -152
-137 -164 -146 -13 -9 -68 -60 -123 -113 l-99 -97 0 -176 c0 -97 4 -183 8
-190 7 -10 138 -12 632 -12 494 0 625 2 632 12 13 22 10 342 -4 356 -9 9 -94
12 -320 12 -268 0 -309 2 -315 15 -5 16 65 86 244 246 257 229 370 333 385
357 15 23 18 53 18 203 0 135 -3 179 -13 188 -21 17 -1224 20 -1248 3z"/>
<path d="M7745 4370 l-220 -5 -3 -689 c-1 -380 2 -694 6 -698 10 -10 446 -13
461 -3 7 4 11 61 11 155 l0 149 43 53 c56 69 77 72 119 15 57 -77 274 -341
295 -359 17 -15 48 -17 273 -18 140 0 261 0 268 0 6 0 12 6 12 14 0 14 -118
168 -213 280 -23 27 -58 71 -77 96 -19 26 -69 90 -111 141 -42 52 -100 122
-128 157 -69 86 -69 107 7 186 31 34 95 106 142 161 47 55 103 120 126 145
115 128 174 202 169 210 -8 13 -540 13 -564 0 -10 -5 -87 -88 -171 -185 -98
-112 -159 -175 -169 -173 -14 3 -16 27 -19 177 -2 160 -9 206 -31 199 -3 -1
-105 -5 -226 -8z"/>
<path d="M1881 4351 c-12 -21 -16 -1316 -5 -1358 3 -12 11 -23 17 -25 7 -2
212 0 457 3 404 5 452 7 520 26 119 32 254 123 339 228 65 80 85 116 118 210
26 74 28 91 28 240 0 128 -3 166 -16 190 -9 17 -19 45 -23 64 -10 57 -92 175
-168 246 -83 76 -160 124 -262 162 l-71 27 -462 4 c-454 3 -462 3 -472 -17z
m769 -382 c32 -10 65 -34 116 -84 66 -66 71 -74 89 -146 18 -74 18 -79 0 -140
-30 -110 -103 -191 -205 -230 -60 -23 -257 -28 -278 -7 -9 9 -12 91 -12 310 0
272 1 298 18 308 23 15 215 7 272 -11z"/>
<path d="M3606 4354 c-9 -24 -7 -1357 3 -1372 6 -10 134 -13 646 -12 351 0
641 3 646 6 14 8 11 348 -3 362 -9 9 -111 12 -399 12 l-388 0 -15 22 c-21 30
-20 71 2 97 17 21 24 21 382 24 l365 2 0 170 0 170 -370 5 -369 5 -13 25 c-18
35 -16 74 5 99 17 21 23 21 412 24 l395 2 3 174 c2 119 -1 178 -9 187 -10 12
-119 14 -649 14 -572 0 -638 -2 -644 -16z"/>
<path d="M6752 4362 c-10 -7 -12 -153 -10 -698 l3 -689 240 0 240 0 0 695 0
695 -230 2 c-126 2 -236 -1 -243 -5z"/>
</g>
</svg>
